<?xml version="1.0" encoding="UTF-8"?>
<!-- https://thenounproject.com/icon/dice-14730/ -->
<svg version="1.1" height="24" width="30" viewBox="0 0 1200 1200" xmlns="http://www.w3.org/2000/svg">
 <g>
  <path d="m318.36 138.71-296.06 146.35 234.8-8.5195 294.36-156.54zm-28.211 75.504c-20.566 7.8594-38.41 11.148-39.863 7.3555-1.4648-3.8164 14.027-13.262 34.586-21.133 20.555-7.8594 38.41-11.148 39.863-7.3438 1.4609 3.8047-14.031 13.262-34.586 21.121z"/>
  <path d="m246.91 288.45-219.5 8.5195 132.72 353.91 219.49 28.922zm-131.69 125.83c-11.352 4.5234-27.371-8.9023-35.773-30-8.3867-21.098-6.0117-41.867 5.3281-46.391 11.352-4.5234 27.359 8.9023 35.773 30 8.4023 21.094 6.0117 41.867-5.3281 46.391zm77.57 204.46c-11.438 4.2969-27.203-9.4219-35.219-30.672-8.0273-21.254-5.2578-41.965 6.168-46.273 11.438-4.3203 27.191 9.4062 35.219 30.66 8.0273 21.23 5.2656 41.953-6.168 46.285zm52.727-201.26c-12.758 4.8711-30.324-10.078-39.215-33.406-8.8672-23.328-5.7344-46.176 7.0312-51.023 12.781-4.8828 30.336 10.078 39.215 33.395 8.9062 23.316 5.75 46.176-7.0312 51.035zm73.379 221.2c-12.469 4.1523-28.859-11.426-36.602-34.754-7.7539-23.316-3.9258-45.613 8.5312-49.754 12.469-4.1523 28.871 11.426 36.613 34.754 7.7539 23.332 3.9258 45.602-8.543 49.754z"/>
  <path d="m981.93 669.59-137.81 387.93 193.97-136.15 125.91-345.37zm-54.891 280.25c-12.098 21.828-26.891 36.77-33.07 33.301-6.1562-3.3828-1.3438-23.832 10.738-45.66 12.109-21.793 26.902-36.73 33.07-33.301 6.1719 3.4336 1.3594 23.879-10.738 45.66zm96.973-143.06c-11.605 20.941-26.027 35.184-32.195 31.754-6.1797-3.4336-1.7539-23.172 9.875-44.148 11.617-20.941 26.027-35.184 32.184-31.754 6.168 3.4414 1.7656 23.172-9.8633 44.148zm57.133-105.47c-6.1562-3.4062-1.7383-23.195 9.875-44.148 11.629-20.953 26.027-35.184 32.195-31.754 6.168 3.4062 1.7539 23.172-9.8633 44.137-11.617 20.953-26.039 35.195-32.207 31.766z"/>
  <path d="m602.51 433.08 60.098-22.355-97.527-287.33-301.16 165.05 129.31 391.34 142.45-88.738 61.727-151.18zm-174.98 172.42c-20.832 0-37.715-21.07-37.715-47.074 0-25.992 16.883-47.074 37.715-47.074 20.832 0 37.727 21.086 37.727 47.074 0.003906 26.004-16.895 47.074-37.727 47.074zm106.08-325.56c-20.207 0-36.59-19.789-36.59-44.219 0-24.422 16.379-44.219 36.59-44.219 20.207 0 36.574 19.801 36.574 44.219 0 24.43-16.379 44.219-36.574 44.219z"/>
  <path d="m617.81 463.7-151.43 370.91 367.54 222.91 137.8-394.75zm-50.473 389.65c-22.871 0-41.398-20.016-41.398-44.676 0-24.684 18.516-44.676 41.398-44.676 22.883 0 41.398 19.992 41.398 44.676 0.011719 24.66-18.516 44.676-41.398 44.676zm39.133-268.98c0-0.30078 0.046875-0.61328 0.046875-0.89844 0.42188-25.957 19.535-46.883 43.055-46.883 7.9219 0 15.324 2.4102 21.707 6.5508 12.793 8.293 21.406 23.629 21.406 41.242 0 26.387-19.297 47.773-43.117 47.773-23.801 0-43.098-21.395-43.098-47.785zm64.102 172.39c0-26.363 19.285-47.773 43.105-47.773 23.82 0 43.105 21.406 43.105 47.773 0 26.41-19.285 47.785-43.105 47.785-23.82-0.003907-43.105-21.363-43.105-47.785zm112.85 223.05c-24.742 0-44.797-21.395-44.797-47.773 0-26.387 20.051-47.785 44.797-47.785 24.758 0 44.809 21.395 44.809 47.785 0.007812 26.379-20.043 47.773-44.809 47.773zm83.375-227.44c-23.797 0-43.105-21.383-43.105-47.762 0-26.398 19.297-47.797 43.105-47.797s43.105 21.395 43.105 47.797c-0.003906 26.379-19.297 47.762-43.105 47.762z"/>
  <path d="m821.99 382.88-199.07 74.004 359 199.07 182.07-91.867zm-46.285 115.93c-3.1328 8.1836-24.18 7.7539-46.992-0.99609-13.246-5.0742-24.168-11.832-30.371-18.215l-5.2578-12.434c0.15625-0.42188 0.39453-0.78125 0.64844-1.1523 4.6445-6.9727 24.672-6.168 46.332 2.1367 22.812 8.7344 38.762 22.465 35.641 30.66zm109.46 57.277c-3.1445 8.1953-24.191 7.7539-47.004-0.98438-22.812-8.7344-38.746-22.465-35.617-30.648 3.1328-8.1953 24.18-7.7539 46.98 0.98437 22.812 8.7344 38.773 22.461 35.641 30.648zm6.793-103.21c-3.1211 8.1836-24.18 7.7383-46.98-0.99609-22.812-8.7344-38.773-22.453-35.641-30.648 3.1445-8.1836 24.156-7.7383 46.992 0.99609 22.812 8.7383 38.762 22.441 35.629 30.648zm98.699 159.36c-3.1445 8.1953-24.18 7.7656-46.992-0.97266-22.812-8.7344-38.746-22.453-35.652-30.648 3.1445-8.207 24.191-7.7539 47.004 0.98437 22.812 8.7383 38.773 22.441 35.641 30.637zm0.5625-105.49c-3.1445 8.1836-24.156 7.7539-46.992-0.99609-22.824-8.7227-38.746-22.453-35.629-30.648 3.1211-8.1836 24.168-7.7539 46.98 0.99609s38.773 22.453 35.641 30.648zm55.645 51.195c-22.801-8.7344-38.746-22.453-35.629-30.637 3.1445-8.207 24.191-7.7539 47.004 0.98437 22.812 8.7344 38.746 22.465 35.641 30.648-3.1445 8.1836-24.191 7.75-47.016-0.99609z"/>
 </g>
</svg>
